<?xml version="1.0" encoding="UTF-8"?>
<svg version="1.1" xmlns="http://www.w3.org/2000/svg" width="2000" height="1000">
<path d="M0 0 C5.58544265 5.45554863 8.03432327 11.76774991 8.4375 19.5625 C8.18611007 25.82538828 5.64896175 30.18614207 1.5 34.75 C-6.57434306 40.77911033 -18.28768231 42.05180297 -27.9375 43.75 C-29.12923828 43.97042969 -30.32097656 44.19085938 -31.54882812 44.41796875 C-36.44326781 45.30287025 -41.02153439 46.05301009 -46 46 C-45.89177162 46.58438308 -45.78354324 47.16876616 -45.67203522 47.77085781 C-43.03409837 62.01758342 -40.40506362 76.26593061 -37.78582001 90.5161047 C-36.51893941 97.40745955 -35.24909743 104.29824359 -33.97216797 111.18774414 C-32.73942463 117.83889158 -31.51508865 124.49154306 -30.29582214 131.14517403 C-29.82973806 133.68093515 -29.36085874 136.21618416 -28.88911438 138.75089836 C-28.22786988 142.30648579 -27.5766687 145.86377909 -26.92773438 149.42163086 C-26.73136887 150.46460831 -26.53500336 151.50758575 -26.33268738 152.58216858 C-24.74468719 161.3895486 -23.61539052 168.85715383 -28 177 C-36.46885433 188.75418575 -51.76039512 190.03587379 -65.06298828 192.46289062 C-67.02759388 192.82217012 -68.98959453 193.19598527 -70.94873047 193.58398438 C-72.36436279 193.85952148 -72.36436279 193.85952148 -73.80859375 194.140625 C-74.64060303 194.30594727 -75.4726123 194.47126953 -76.32983398 194.64160156 C-79.5721577 195.07679688 -82.73266269 195.05526364 -86 195 C-87.91926518 184.70881667 -89.83570588 174.4171091 -91.75 164.125 C-91.89413204 163.35008965 -92.03826408 162.57517929 -92.18676376 161.7767868 C-96.78152171 137.06907699 -101.32459365 112.35234069 -105.8125 87.625 C-105.94486557 86.89570534 -106.07723114 86.16641068 -106.21360779 85.41501617 C-107.81140668 76.61043333 -109.4067202 67.80540182 -111 59 C-116.61 59.99 -122.22 60.98 -128 62 C-126.7625 63.051875 -125.525 64.10375 -124.25 65.1875 C-118.83767519 69.95914325 -115.29838946 73.68180488 -114 81 C-113.83254458 93.28006431 -119.44425592 102.10587001 -125.875 112.1875 C-126.53411377 113.23123779 -127.19322754 114.27497559 -127.87231445 115.3503418 C-129.90851315 118.57098166 -131.9532701 121.78604475 -134 125 C-135.22540048 126.92959856 -136.45066641 128.85928258 -137.67578125 130.7890625 C-139.99549965 134.43954651 -142.31873332 138.08776171 -144.64453125 141.734375 C-150.27896305 150.56626535 -150.27896305 150.56626535 -155.85498047 159.43505859 C-158.01630124 162.898042 -160.19631595 166.31855744 -162.55859375 169.6484375 C-163.67427734 171.27652344 -163.67427734 171.27652344 -164.8125 172.9375 C-165.78123047 174.28134766 -165.78123047 174.28134766 -166.76953125 175.65234375 C-170.50137003 185.80531465 -165.55632992 199.39541046 -163.50854492 209.80566406 C-159.11195295 232.28668524 -159.11195295 232.28668524 -163.68359375 240.1875 C-170.97715537 250.22967386 -182.88304357 252.4871091 -194.4375 254.625 C-195.49259766 254.82867187 -196.54769531 255.03234375 -197.63476562 255.2421875 C-200.75421774 255.84112231 -203.8766726 256.42166115 -207 257 C-208.02109863 257.19561523 -209.04219727 257.39123047 -210.09423828 257.59277344 C-211.06474121 257.77614258 -212.03524414 257.95951172 -213.03515625 258.1484375 C-214.32691772 258.394729 -214.32691772 258.394729 -215.64477539 258.64599609 C-218 259 -218 259 -222 259 C-223.566672 250.4295863 -225.1314577 241.85883101 -226.69381714 233.28763008 C-227.41929421 229.30795604 -228.14542753 225.32840405 -228.87304688 221.34912109 C-229.57483919 217.5109487 -230.2749256 213.67246877 -230.97381592 209.83376694 C-231.24113875 208.36719488 -231.50908251 206.90073586 -231.77764893 205.43439102 C-232.15287551 203.3851021 -232.52591876 201.33542715 -232.8984375 199.28564453 C-233.11161621 198.11760284 -233.32479492 196.94956116 -233.54443359 195.74612427 C-234 193 -234 193 -234 191 C-234.51304687 190.77828125 -235.02609375 190.5565625 -235.5546875 190.328125 C-238.99683058 188.45859042 -242.01032966 186.11652569 -245.125 183.75 C-245.82149658 183.22422363 -246.51799316 182.69844727 -247.2355957 182.15673828 C-254.12105062 176.94236178 -260.93426376 171.63525112 -267.7421875 166.3203125 C-273.47051713 161.84848674 -279.23478574 157.42412776 -285 153 C-286.6902568 151.70174419 -288.38023458 150.40312787 -290.06982422 149.10400391 C-291.17382841 148.25538691 -292.27830653 147.40738603 -293.38330078 146.56005859 C-297.39254053 143.48199711 -301.3560739 140.34965478 -305.29296875 137.1796875 C-306.92838904 135.81049182 -306.92838904 135.81049182 -309 136 C-310.37815888 137.58783404 -310.37815888 137.58783404 -311.75 139.625 C-314.55736563 143.49200854 -317.46194649 146.78358771 -321 150 C-321.66 150 -322.32 150 -323 150 C-323 150.66 -323 151.32 -323 152 C-321.7625 152.20625 -320.525 152.4125 -319.25 152.625 C-308.64226541 155.03963346 -299.01460301 160.66485861 -292 169 C-283.11896602 183.23601737 -280.57898603 199.15211907 -283.6875 215.6484375 C-285.68996755 222.13976982 -288.77600718 227.69688492 -293 233 C-293.47824219 233.60328125 -293.95648437 234.2065625 -294.44921875 234.828125 C-309.35478859 251.49833409 -334.99197608 254.9485638 -355.75 258.3125 C-357.99979851 258.68749041 -360.24938783 259.06373771 -362.4987793 259.44116211 C-367.2178536 260.23073292 -371.93822464 261.01183543 -376.65966797 261.78710938 C-384.16473528 263.02230659 -391.66253042 264.29866388 -399.16015625 265.578125 C-402.84892139 266.20458643 -406.53786405 266.82998633 -410.22692871 267.4546814 C-412.60532319 267.85786189 -414.98349997 268.26232883 -417.3614502 268.66812134 C-420.68403859 269.23371631 -424.00781717 269.79170683 -427.33203125 270.34765625 C-428.31204605 270.51593933 -429.29206085 270.68422241 -430.30177307 270.85760498 C-431.21643845 271.00908997 -432.13110382 271.16057495 -433.07348633 271.31665039 C-433.86040359 271.44938858 -434.64732086 271.58212677 -435.45808411 271.71888733 C-438.64777153 272.07163761 -441.79307641 272.01686381 -445 272 C-448.32308755 252.2399163 -451.64408475 232.47948234 -454.96268845 212.7186451 C-456.50410721 203.54045746 -458.04617396 194.36237964 -459.58984375 185.18457031 C-460.93751048 177.17207655 -462.28388247 169.15936642 -463.62878919 161.14640892 C-464.33894378 156.91556863 -465.04968555 152.68482914 -465.76198578 148.45434952 C-468.98273634 129.32303392 -472.12743578 110.18732124 -475 91 C-461.85676982 88.79786035 -448.71309893 86.59837211 -435.56886387 84.40223789 C-429.46504369 83.38232877 -423.36137722 82.36151794 -417.25805664 81.33862305 C-411.36454839 80.35092645 -405.47064356 79.36562898 -399.57645988 78.38197136 C-397.33134709 78.00686431 -395.08637684 77.63090301 -392.84155464 77.25406075 C-389.68974979 76.72511387 -386.53744502 76.19924709 -383.38500977 75.67407227 C-382.46359192 75.51870499 -381.54217407 75.36333771 -380.59283447 75.20326233 C-361.07270393 71.96531796 -338.43990743 69.73211063 -321 81 C-317.1515707 83.83337869 -313.50515416 86.87386373 -311 91 C-311 91.66 -311 92.32 -311 93 C-309.85724609 92.49339844 -309.85724609 92.49339844 -308.69140625 91.9765625 C-294.79909249 85.97563795 -281.60459592 83.35468786 -267 89 C-259.96781331 92.10014568 -254.07818777 95.9193343 -248.125 100.75 C-246.54876215 102.002039 -244.97193896 103.25334145 -243.39453125 104.50390625 C-242.63994629 105.10605957 -241.88536133 105.70821289 -241.10791016 106.32861328 C-231.63259707 113.84170031 -221.76154515 120.86553735 -212 128 C-208.46404648 123.80157275 -205.58403573 119.33312571 -202.6875 114.6875 C-202.17405029 113.87224854 -201.66060059 113.05699707 -201.1315918 112.21704102 C-198.11671227 107.42151931 -195.14277215 102.60286491 -192.1953125 97.765625 C-191.54989502 96.71415283 -190.90447754 95.66268066 -190.23950195 94.5793457 C-188.98966819 92.5415767 -187.74809141 90.49871137 -186.51635742 88.44995117 C-180.04545598 77.92751731 -173.09252173 69.69678569 -162 64 C-162.7425 63.29875 -163.485 62.5975 -164.25 61.875 C-170.54559167 55.29324507 -172.06368265 49.73081752 -173.75 40.875 C-173.97042969 39.79089844 -174.19085937 38.70679688 -174.41796875 37.58984375 C-175.274127 33.28778151 -176 29.40065541 -176 25 C-139.84609831 18.15494454 -103.66874607 11.44350638 -67.46755981 4.85302734 C-64.50128649 4.31273433 -61.53517009 3.77158723 -58.5690918 3.23022461 C-53.85722659 2.37041085 -49.14492976 1.5130028 -44.43228149 0.65749168 C-42.68611737 0.3402018 -40.94008112 0.02220725 -39.19418335 -0.29654503 C-36.78673373 -0.73585548 -34.37879149 -1.17236071 -31.97070312 -1.6081543 C-31.27701378 -1.73534348 -30.58332443 -1.86253265 -29.8686142 -1.99357605 C-8.62742019 -5.81849269 -8.62742019 -5.81849269 0 0 Z M-404 118 C-401.69170625 134.52960875 -401.69170625 134.52960875 -399 151 C-382.39676682 150.37781976 -382.39676682 150.37781976 -368 143 C-364.85924563 138.88452875 -363.70235448 135.00892564 -364.21484375 129.828125 C-365.20342539 124.21674729 -366.87067119 120.937267 -371 117 C-381.08875443 111.99844432 -393.5851977 115.57996295 -404 118 Z M-375.51953125 182.875 C-376.90168823 183.11863281 -376.90168823 183.11863281 -378.31176758 183.3671875 C-380.04463013 183.68042969 -380.04463013 183.68042969 -381.8125 184 C-385.504375 184.66 -389.19625 185.32 -393 186 C-391.02 198.21 -389.04 210.42 -387 223 C-382.33895704 224.55368099 -378.13671171 223.22998624 -373.375 222.375 C-372.41464844 222.22160156 -371.45429687 222.06820312 -370.46484375 221.91015625 C-362.68659891 220.5275917 -355.91467548 218.20614303 -350.5 212.25 C-347.36178282 205.45052944 -347.44213732 199.36570774 -349.859375 192.30078125 C-352.43610756 187.103194 -356.31944125 184.63745332 -361.625 182.625 C-366.5003926 181.72214952 -370.65695986 182.0057135 -375.51953125 182.875 Z " fill="#000000" transform="translate(1659,216)"/>
<path d="M0 0 C10.14485202 -0.46642998 19.11172601 2.91145084 26.91821289 9.22973633 C30.52107596 12.5477126 33.27270136 16.32439744 36.06640625 20.328125 C36.66702881 21.16593506 37.26765137 22.00374512 37.88647461 22.86694336 C39.64561032 25.32512939 41.38811818 27.79442911 43.12890625 30.265625 C44.01537959 31.50631547 44.90324092 32.74601632 45.79296875 33.984375 C47.39417961 36.21443789 48.98885633 38.4489117 50.578125 40.6875 C53.52813167 44.83598341 56.51794478 48.95548969 59.50390625 53.078125 C63.75144814 58.9468566 67.96130496 64.83987076 72.12890625 70.765625 C77.84670825 78.89354976 83.65714863 86.95228741 89.48779297 94.99951172 C92.74401121 99.49582498 95.99293328 103.99741948 99.24047852 108.5 C102.01418211 112.34418966 104.79543516 116.1825474 107.58984375 120.01171875 C128.70151735 148.98412188 128.70151735 148.98412188 127.12890625 163.265625 C125.30346435 171.50445277 120.50532117 177.86724666 114.12890625 183.265625 C104.73322142 189.08849499 91.56007953 191.45211272 80.62890625 189.703125 C67.3895086 186.19923081 60.36366006 175.67143731 53.8515625 164.49609375 C52.12890625 161.265625 52.12890625 161.265625 52.12890625 159.265625 C51.08863281 159.42417969 50.04835938 159.58273437 48.9765625 159.74609375 C36.89105668 161.54676542 24.77551442 163.10667303 12.64987183 164.60903931 C10.8118478 164.83727663 8.97405455 165.06738061 7.13650513 165.29940796 C4.50442537 165.63100364 1.8715221 165.95511377 -0.76171875 166.27734375 C-1.54557449 166.37720581 -2.32943024 166.47706787 -3.13703918 166.57995605 C-8.41643234 167.21455502 -13.55327189 167.34919077 -18.87109375 167.265625 C-19.11859375 168.503125 -19.36609375 169.740625 -19.62109375 171.015625 C-22.47644567 183.62676263 -26.54777206 195.86740431 -37.87109375 203.265625 C-48.13264915 208.25932085 -60.80963464 209.1260905 -71.68359375 205.765625 C-72.45316406 205.4871875 -73.22273437 205.20875 -74.015625 204.921875 C-75.85733339 204.15447735 -75.85733339 204.15447735 -77.87109375 204.265625 C-77.8246875 205.3278125 -77.77828125 206.39 -77.73046875 207.484375 C-77.25225031 222.86555285 -77.25225031 222.86555285 -81.87109375 228.265625 C-89.23487294 235.64893676 -100.37321119 236.71439249 -110.23657227 237.9831543 C-111.32572937 238.12989594 -112.41488647 238.27663757 -113.53704834 238.42782593 C-117.1070053 238.90660506 -120.67839361 239.37354183 -124.25 239.83984375 C-126.74770779 240.17131088 -129.24534161 240.50333578 -131.74290466 240.83589172 C-136.96456551 241.52934113 -142.18692029 242.21729296 -147.40991211 242.90063477 C-153.42773578 243.68803978 -159.44417056 244.48543449 -165.45995194 245.28828305 C-171.27591772 246.06426466 -177.09275581 246.83350518 -182.91001701 247.59971046 C-185.37290423 247.9246495 -187.8355809 248.25118861 -190.29803658 248.57938194 C-193.74296433 249.03746059 -197.18880969 249.48788646 -200.63500977 249.9362793 C-202.14785805 250.13960121 -202.14785805 250.13960121 -203.69126892 250.34703064 C-204.63998871 250.46890747 -205.5887085 250.5907843 -206.56617737 250.71635437 C-207.3781939 250.82307307 -208.19021044 250.92979177 -209.02683353 251.03974438 C-212.97688282 251.35344268 -216.91087235 251.30853317 -220.87109375 251.265625 C-222.87588015 238.89568364 -224.69976969 226.51724891 -226.32299805 214.09179688 C-226.54983381 212.3697189 -226.77688106 210.64766876 -227.00411987 208.92564392 C-227.6115645 204.31750676 -228.21596398 199.70897527 -228.81964469 195.1003437 C-229.45468604 190.25561498 -230.09225949 185.41121937 -230.72944641 180.56677246 C-231.79605836 172.45441024 -232.86067789 164.34178848 -233.92407227 156.22900391 C-235.15353457 146.84945185 -236.38617528 137.47032156 -237.62047833 128.09140539 C-238.81135455 119.04193094 -240.00004734 109.992171 -241.18772316 100.942276 C-241.69219786 97.09854393 -242.19743484 93.2549132 -242.70328331 89.41136169 C-243.29687379 84.90034762 -243.88855513 80.38908719 -244.47874069 75.87762642 C-244.69576289 74.22107288 -244.91344772 72.56460599 -245.13183403 70.90823174 C-245.4290503 68.65312194 -245.72389149 66.39771419 -246.01811218 64.14221191 C-246.18382564 62.87914467 -246.34953909 61.61607742 -246.52027416 60.31473541 C-246.87109375 57.265625 -246.87109375 57.265625 -246.87109375 54.265625 C-228.14874171 51.76273367 -209.42536378 49.26766019 -190.7007246 46.78193569 C-182.00693208 45.62763519 -173.31349638 44.47076134 -164.62084961 43.30786133 C-157.04594467 42.29449913 -149.47041952 41.28593234 -141.89410478 40.28316265 C-137.8810872 39.75184473 -133.86842549 39.21810125 -129.85649681 38.67861748 C-126.08250718 38.17120635 -122.30772344 37.67019783 -118.53222466 37.17414474 C-117.14475216 36.99069056 -115.75758972 36.80487402 -114.3707695 36.61655235 C-112.48091064 36.36027642 -110.58980745 36.11322638 -108.69865417 35.86668396 C-107.63951404 35.72564963 -106.5803739 35.58461531 -105.4891386 35.43930721 C-102.87109375 35.265625 -102.87109375 35.265625 -99.87109375 36.265625 C-99.36386226 40.11887557 -98.86661176 43.97335203 -98.37109375 47.828125 C-98.22800781 48.91416016 -98.08492187 50.00019531 -97.9375 51.11914062 C-95.75851344 68.18786869 -95.75851344 68.18786869 -99.87109375 76.265625 C-107.84855036 86.53858907 -122.59934223 87.21674341 -134.4921875 88.75 C-135.49878418 88.87568359 -136.50538086 89.00136719 -137.54248047 89.13085938 C-140.62914927 89.51663178 -143.7129846 89.92079101 -146.796875 90.328125 C-148.77460148 90.58440134 -150.752462 90.83964588 -152.73046875 91.09375 C-154.10099396 91.27179169 -154.10099396 91.27179169 -155.49920654 91.45343018 C-160.33370977 92.05271898 -164.99979136 92.39010462 -169.87109375 92.265625 C-169.73477539 93.27931152 -169.73477539 93.27931152 -169.59570312 94.31347656 C-169.18479934 97.38050458 -168.77790457 100.44805153 -168.37109375 103.515625 C-168.22800781 104.57910156 -168.08492188 105.64257812 -167.9375 106.73828125 C-167.80214844 107.76308594 -167.66679687 108.78789063 -167.52734375 109.84375 C-167.33881836 111.25769043 -167.33881836 111.25769043 -167.14648438 112.70019531 C-166.87109375 115.265625 -166.87109375 115.265625 -166.87109375 119.265625 C-166.124646 119.16540039 -165.37819824 119.06517578 -164.60913086 118.96191406 C-157.54856054 118.0148495 -150.48734162 117.07284623 -143.425354 116.13641357 C-139.79540138 115.65489652 -136.16572383 115.17147832 -132.53662109 114.68359375 C-129.02941767 114.21217013 -125.52156309 113.74589942 -122.01321411 113.28308105 C-120.03429983 113.02069086 -118.05608104 112.75307234 -116.07788086 112.48535156 C-109.9544258 111.68187795 -104.04776469 111.0488997 -97.87109375 111.265625 C-96.38422159 117.7441394 -95.4020215 124.23269482 -94.62109375 130.828125 C-94.46471436 132.01402222 -94.46471436 132.01402222 -94.30517578 133.22387695 C-93.57356172 139.80363504 -93.99495432 145.87045222 -97.24609375 151.75390625 C-97.78234375 152.35589844 -98.31859375 152.95789063 -98.87109375 153.578125 C-99.38671875 154.19300781 -99.90234375 154.80789063 -100.43359375 155.44140625 C-109.05831528 161.89612573 -119.89532507 162.5696201 -130.24609375 163.890625 C-132.54594042 164.1961719 -134.84527357 164.50538864 -137.14459229 164.81488037 C-138.63083177 165.01457503 -140.11727975 165.21272471 -141.60394287 165.40924072 C-147.71714548 166.22284663 -153.79768885 167.19349971 -159.87109375 168.265625 C-159.78021484 168.94141602 -159.68933594 169.61720703 -159.59570312 170.31347656 C-159.18479934 173.38050458 -158.77790457 176.44805153 -158.37109375 179.515625 C-158.22800781 180.57910156 -158.08492188 181.64257812 -157.9375 182.73828125 C-157.80214844 183.76308594 -157.66679687 184.78789063 -157.52734375 185.84375 C-157.33881836 187.25769043 -157.33881836 187.25769043 -157.14648438 188.70019531 C-156.87109375 191.265625 -156.87109375 191.265625 -156.87109375 195.265625 C-155.86820312 195.10707031 -154.8653125 194.94851563 -153.83203125 194.78515625 C-142.45291034 193.01887202 -131.0483278 191.44413893 -119.63433838 189.92221069 C-117.92347471 189.69366175 -116.21281902 189.4635503 -114.50238037 189.23184204 C-112.05687208 188.90118586 -109.61061318 188.57674823 -107.1640625 188.25390625 C-106.43234329 188.15404419 -105.70062408 188.05418213 -104.94673157 187.95129395 C-100.53562749 187.37788391 -96.30573713 187.17375856 -91.87109375 187.265625 C-92.20109375 186.275625 -92.53109375 185.285625 -92.87109375 184.265625 C-95.5403072 168.07407546 -86.60149556 152.83792103 -80.57446289 138.30175781 C-73.16234339 120.40823468 -65.94303486 102.44927554 -58.9135704 84.40177727 C-56.24580488 77.5583456 -53.56401798 70.72038778 -50.88418388 63.88167477 C-48.58886389 58.01959174 -46.30399017 52.15375615 -44.03735352 46.28051758 C-41.79864296 40.48159299 -39.53421834 34.69333044 -37.25168037 28.91152382 C-36.39652633 26.73151985 -35.55089238 24.54775554 -34.71519279 22.36021996 C-33.55980282 19.33947381 -32.372019 16.33351768 -31.17553711 13.32885742 C-30.84246048 12.43419266 -30.50938385 11.53952789 -30.16621399 10.61775208 C-27.72395943 4.62745777 -27.72395943 4.62745777 -23.23934937 2.72483826 C-22.12782501 2.57329788 -21.01630066 2.42175751 -19.87109375 2.265625 C-18.78380981 2.06235596 -18.78380981 2.06235596 -17.67456055 1.85498047 C-17.06265869 1.78166504 -16.45075684 1.70834961 -15.8203125 1.6328125 C-15.12711914 1.54854004 -14.43392578 1.46426758 -13.71972656 1.37744141 C-9.14958091 0.87664596 -4.57790482 0.42353405 0 0 Z M6.12890625 85.265625 C4.84172212 89.33904547 3.56013235 93.41417071 2.28369141 97.4909668 C1.84870175 98.87751662 1.41218862 100.26358945 0.97412109 101.64916992 C0.34461485 103.64117892 -0.27938765 105.63484059 -0.90234375 107.62890625 C-1.27939453 108.82813721 -1.65644531 110.02736816 -2.04492188 111.26293945 C-3.00373667 114.22866483 -3.00373667 114.22866483 -2.87109375 117.265625 C6.26925562 116.79112599 15.12483121 115.9926636 24.12890625 114.265625 C22.79988468 110.75265113 21.24947248 107.54432544 19.37890625 104.2890625 C18.85296875 103.37125 18.32703125 102.4534375 17.78515625 101.5078125 C17.23859375 100.56164062 16.69203125 99.61546875 16.12890625 98.640625 C15.58234375 97.68671875 15.03578125 96.7328125 14.47265625 95.75 C12.4295801 92.19464689 10.40415976 88.67850526 8.12890625 85.265625 C7.46890625 85.265625 6.80890625 85.265625 6.12890625 85.265625 Z " fill="#000000" transform="translate(529.87109375,418.734375)"/>
<path d="M0 0 C0.76699219 0.0942627 1.53398438 0.18852539 2.32421875 0.28564453 C6.87530039 0.87530039 6.87530039 0.87530039 8 2 C9.12044575 13.91550956 7.64841758 29.35723698 0 39 C-3.97692262 43.20495717 -8.12067487 46.70589297 -14.11550903 47.16038513 C-16.74228436 47.19828325 -19.36164426 47.17186488 -21.98828125 47.125 C-22.9642778 47.11742676 -23.94027435 47.10985352 -24.94584656 47.10205078 C-29.10221558 47.06959419 -33.25818318 47.01394138 -37.41430664 46.95898438 C-61.12207873 45.68494024 -61.12207873 45.68494024 -83 53 C-85.2973659 55.80734473 -85.2973659 55.80734473 -84.875 58.9375 C-83.84689717 62.53585989 -82.96017231 63.74092113 -80 66 C-75.05250282 68.38500252 -70.36672268 69.72562099 -64.9296875 70.5625 C-64.15688446 70.68616943 -63.38408142 70.80983887 -62.58786011 70.93725586 C-51.88142278 72.57304101 -41.07761829 73.35667287 -30.28808594 74.22949219 C-9.35346059 75.94331126 7.07346221 78.71575145 21.78515625 94.97265625 C31.84587977 107.50353183 35.39552397 124.2034439 34 140 C31.47392669 157.66146253 22.14245753 171.86143159 8.3125 182.8125 C-24.36972615 205.79548484 -71.12084728 209.86018892 -109.69384766 204.40673828 C-117.92432134 202.95512181 -126.70806378 199.7627609 -132 193 C-137.56700301 183.16781623 -139.02983143 171.01415311 -136.24609375 160.0234375 C-134.50387925 155.93777369 -132.55277366 152.74652157 -129 150 C-126.22062356 149.93125422 -123.96068404 150.07929558 -121.24609375 150.484375 C-120.48104019 150.57909088 -119.71598663 150.67380676 -118.92774963 150.77139282 C-117.28367251 150.97530599 -115.64067828 151.18810793 -113.9987793 151.40887451 C-109.69186976 151.98249279 -105.37619012 152.47528701 -101.05859375 152.9609375 C-99.76748184 153.10669724 -99.76748184 153.10669724 -98.45028687 153.25540161 C-77.03285402 155.58047855 -49.58299403 157.14267852 -31.09375 143.921875 C-28.95444426 142.18740921 -28.95444426 142.18740921 -28.0625 140.125 C-27.96971287 136.97023745 -28.64084404 134.84187155 -30 132 C-43.75925553 125.33610969 -61.07091502 125.45894233 -76.015625 124.57421875 C-99.34733675 123.16392274 -120.95479729 120.65040787 -137.37109375 102.34375 C-139.23199581 99.66619307 -140.02547294 97.09602399 -141 94 C-141.79172607 94.09087891 -142.58345215 94.18175781 -143.39916992 94.27539062 C-146.99495587 94.68648818 -150.59121545 95.09328825 -154.1875 95.5 C-155.43337891 95.64308594 -156.67925781 95.78617187 -157.96289062 95.93359375 C-159.16494141 96.06894531 -160.36699219 96.20429688 -161.60546875 96.34375 C-163.26292114 96.53227539 -163.26292114 96.53227539 -164.95385742 96.72460938 C-167.66206834 96.96944883 -170.28415835 97.02023922 -173 97 C-172.85632492 98.18476425 -172.71264984 99.3695285 -172.56462097 100.5901947 C-171.19679167 111.86967251 -169.82912847 123.14917046 -168.46161938 134.4286871 C-167.75891747 140.22468465 -167.05616121 146.02067561 -166.35327148 151.81665039 C-165.67231696 157.4317672 -164.99151728 163.04690276 -164.31081581 168.66205025 C-164.05377802 170.78215742 -163.79668857 172.90225833 -163.53954124 175.02235222 C-163.41742083 176.02922144 -163.29530041 177.03609066 -163.16947937 178.07347107 C-162.98821487 179.56749372 -162.98821487 179.56749372 -162.80328846 181.09169865 C-162.56427437 183.06541145 -162.32599166 185.03921298 -162.08847332 187.01310635 C-161.45689278 192.25891953 -160.81246554 197.50276416 -160.15103149 202.74490356 C-160.01176648 203.86439927 -159.87250147 204.98389498 -159.7290163 206.1373148 C-159.46312581 208.27424601 -159.19312548 210.41067166 -158.91816235 212.54645443 C-157.70446813 222.37952645 -156.88500385 231.1168558 -162 240 C-173.88092802 254.37407613 -198.7724519 253.464439 -215.67578125 255.44921875 C-216.58239502 255.55580811 -217.48900879 255.66239746 -218.4230957 255.7722168 C-220.96484399 255.99689241 -223.450003 256.01552107 -226 256 C-228.22229391 237.62435817 -230.43915131 219.24806823 -232.64957428 200.87099457 C-233.67608362 192.3378376 -234.70435738 183.80490024 -235.73681641 175.27246094 C-236.63691184 167.83386195 -237.53366472 160.39486885 -238.42643976 152.95538759 C-238.8990819 149.01784649 -239.37337258 145.08052008 -239.85166931 141.1436615 C-240.30228358 137.43421569 -240.74840892 133.72425687 -241.19117546 130.01386642 C-241.43132432 128.01114939 -241.67615924 126.00899599 -241.92115784 124.00686646 C-242.63864816 117.95854957 -243.1898967 112.09119229 -243 106 C-243.95664551 106.12117188 -244.91329102 106.24234375 -245.89892578 106.3671875 C-249.51734212 106.82315211 -253.13710029 107.26762181 -256.75732422 107.70898438 C-258.31108563 107.89996021 -259.86448941 108.09387342 -261.41748047 108.29101562 C-291.33554441 112.08153956 -291.33554441 112.08153956 -300 107 C-307.57035271 101.08890268 -309.1741741 93.57671308 -310.32373047 84.421875 C-311.94585751 70.46145926 -311.94585751 70.46145926 -312 66 C-310.18037695 64.18037695 -307.32799498 64.45199773 -304.86608887 64.15843201 C-303.8942798 64.04076913 -303.8942798 64.04076913 -302.90283823 63.92072922 C-300.71630218 63.65710176 -298.52907309 63.39974294 -296.34179688 63.14233398 C-294.77987439 62.95535565 -293.21799587 62.7680098 -291.65615845 62.58032227 C-287.40003559 62.0700708 -283.14326909 61.56538969 -278.88633537 61.06195331 C-275.3328985 60.64120314 -271.77978593 60.21775013 -268.2266717 59.79428536 C-259.83810098 58.79456018 -251.44900855 57.79930168 -243.05957031 56.80688477 C-234.41293349 55.78397428 -225.76714578 54.75410924 -217.12176085 53.72067589 C-209.69876245 52.83358445 -202.27528232 51.95061027 -194.85139894 51.07095581 C-190.41810859 50.54562964 -185.98500777 50.0188214 -181.55235291 49.48815727 C-177.37675616 48.98847041 -173.20057733 48.49396122 -169.02390671 48.00333405 C-167.49553916 47.82294865 -165.96737959 47.64079038 -164.43945694 47.45667458 C-156.93652807 46.5536308 -149.56870718 45.76768671 -142 46 C-141.74089844 45.11699219 -141.48179687 44.23398437 -141.21484375 43.32421875 C-135.0531781 26.46384104 -118.13641709 14.7937597 -102.6875 7.3125 C-70.00835139 -6.65254624 -34.50624062 -4.44599639 0 0 Z " fill="#000000" transform="translate(924,374)"/>
<path d="M0 0 C3.42711489 3.42711489 3.38459049 8.34486397 4.1875 13 C4.37763672 14.00417969 4.56777344 15.00835937 4.76367188 16.04296875 C6.10905694 23.71811747 6.88986949 31.14757374 3.375 38.3125 C-6.44312497 49.42248352 -23.0486238 50.3754184 -37.03149414 52.86523438 C-39.226182 53.25690328 -41.41874671 53.65922207 -43.61132812 54.0625 C-45.02592954 54.31832909 -46.44063917 54.57356076 -47.85546875 54.828125 C-49.10996826 55.0540332 -50.36446777 55.27994141 -51.65698242 55.51269531 C-54.50908836 55.92844084 -57.1269886 56.10247336 -60 56 C-59.87882812 56.65073486 -59.75765625 57.30146973 -59.6328125 57.97192383 C-59.08577907 60.91827744 -58.54284379 63.86537173 -58 66.8125 C-57.80921875 67.83666016 -57.6184375 68.86082031 -57.421875 69.91601562 C-57.24140625 70.89892578 -57.0609375 71.88183594 -56.875 72.89453125 C-56.70742187 73.80050049 -56.53984375 74.70646973 -56.3671875 75.63989258 C-56 78 -56 78 -56 81 C-55.12323608 80.81993408 -55.12323608 80.81993408 -54.22875977 80.63623047 C-41.32819811 77.99728175 -28.40858366 75.47280554 -15.45773315 73.09356689 C-13.99059619 72.82371737 -12.52373492 72.55236446 -11.05715942 72.27947998 C-8.98162723 71.89396378 -6.90508014 71.51448411 -4.828125 71.13671875 C-3.6309082 70.91717529 -2.43369141 70.69763184 -1.20019531 70.47143555 C1.59942568 70.05901045 4.17819536 69.90330368 7 70 C8.72276073 74.74882739 9.76062947 79.41809963 10.625 84.375 C10.82609375 85.45007813 10.82609375 85.45007813 11.03125 86.546875 C12.39799108 94.27314599 12.90341911 100.86616507 9 108 C3.02959695 115.3350666 -4.92109901 117.55004582 -13.8984375 119.140625 C-14.81460846 119.31253357 -15.73077942 119.48444214 -16.67471313 119.66156006 C-19.57284755 120.20234562 -22.47375599 120.72618437 -25.375 121.25 C-27.34525052 121.61612121 -29.31530506 121.98329877 -31.28515625 122.3515625 C-34.87046824 123.01693029 -38.4560177 123.68066159 -42.04443359 124.32910156 C-42.76198822 124.45915588 -43.47954285 124.58921021 -44.21884155 124.72320557 C-46 125 -46 125 -48 125 C-47.80664062 125.81082031 -47.61328125 126.62164062 -47.4140625 127.45703125 C-45.7323213 134.60859407 -44.23366821 141.7576419 -43 149 C-35.66896662 148.29308583 -28.50251449 147.06956468 -21.265625 145.71484375 C-18.81120809 145.26231464 -16.35678069 144.80984235 -13.90234375 144.35742188 C-10.06174795 143.6455342 -6.22142973 142.93218297 -2.38134766 142.2175293 C1.34404676 141.52539898 5.07039879 140.83862182 8.796875 140.15234375 C9.94589294 139.93674301 11.09491089 139.72114227 12.27874756 139.49900818 C13.35046204 139.30202835 14.42217651 139.10504852 15.52636719 138.90209961 C16.46518738 138.72746689 17.40400757 138.55283417 18.37127686 138.37290955 C20.95383335 138.00654918 23.39564326 137.93195377 26 138 C27.91921163 142.98995025 28.52837173 147.72707445 29 153 C29.66209473 153.05406006 30.32418945 153.10812012 31.00634766 153.16381836 C35.86557738 153.58033594 40.69459669 154.06616226 45.5234375 154.75390625 C68.99427259 158.05392891 95.65155837 161.55790684 117 149 C117.66 148.34 118.32 147.68 119 147 C119.14958506 143.54051214 119.14958506 143.54051214 118 140 C108.44792329 130.44792329 87.12900339 131.52092122 74.48730469 130.19775391 C53.68969897 128.00052472 53.68969897 128.00052472 45 125 C43.32550781 124.43539062 43.32550781 124.43539062 41.6171875 123.859375 C30.6931401 119.43995981 22.67305614 113.52094048 17 103 C10.7445758 88.2075379 10.4344459 72.03883767 16 57 C23.95129288 39.40020845 39.30562804 27.14094918 57.0390625 20.20214844 C77.06342092 12.97853245 98.12768938 11.97348223 119.1875 13.75 C120.19619141 13.83362793 121.20488281 13.91725586 122.24414062 14.00341797 C133.92087097 15.0543237 145.45785598 16.97718037 157 19 C157.2193529 32.16929838 156.32773344 44.22044656 148 55 C143.42136361 59.57863639 138.7635093 61.09550547 132.375 61.1875 C128.77322231 61.10043949 125.22190926 60.8517398 121.63671875 60.50390625 C114.90895228 59.93224234 108.20479599 59.7794582 101.4543457 59.75976562 C99.43595155 59.7499925 97.41855089 59.71880068 95.40039062 59.6875 C82.60194318 59.42382392 82.60194318 59.42382392 71.20947266 64.46313477 C69.77744452 65.97060792 69.77744452 65.97060792 69.92578125 68.26171875 C70.11720703 69.46248047 70.11720703 69.46248047 70.3125 70.6875 C70.43238281 71.49574219 70.55226563 72.30398438 70.67578125 73.13671875 C70.83626953 74.05904297 70.83626953 74.05904297 71 75 C81.42949362 79.28830538 91.76735141 81.69256182 102.9375 83.0625 C104.19224121 83.2275 105.44698242 83.3925 106.73974609 83.5625 C112.61817331 84.33344127 118.50133402 85.06179263 124.38671875 85.77734375 C141.00320279 87.83454378 155.39584121 90.97971081 166.4375 104.9375 C167.3268108 106.26885058 168.18122432 107.62414592 169 109 C169.67289063 110.10408203 169.67289063 110.10408203 170.359375 111.23046875 C177.37138537 123.87271098 178.9170779 139.15410492 175.875 153.1875 C172.76283444 164.03685493 166.88260227 172.0777202 159 180 C158.33484375 180.69996094 157.6696875 181.39992188 156.984375 182.12109375 C134.69019055 203.94727052 97.13460221 205.45743818 67.87890625 205.15234375 C52.80532879 204.85388149 35.89265151 204.40607007 24 194 C21.08264008 190.31491378 19.78814447 187.57432869 19 183 C18.40113385 183.19237653 17.8022677 183.38475306 17.1852541 183.58295918 C10.97247681 185.52060934 4.79828644 186.93446928 -1.6027832 188.0847168 C-2.61058334 188.27047272 -3.61838348 188.45622864 -4.65672302 188.64761353 C-7.95374253 189.25376109 -11.25218225 189.85173147 -14.55078125 190.44921875 C-16.85628378 190.87054737 -19.16171793 191.29225028 -21.46708679 191.71430969 C-26.28185058 192.59448607 -31.09731254 193.47070458 -35.91333008 194.34399414 C-42.08607859 195.46354777 -48.25713339 196.59213769 -54.42771626 197.72355938 C-59.18056234 198.59415853 -63.93418793 199.46043643 -68.6880703 200.32535744 C-70.96448375 200.73997899 -73.24067121 201.15584327 -75.51662636 201.57297325 C-78.69171244 202.15413377 -81.86778233 202.72957684 -85.04418945 203.3034668 C-86.45237442 203.56289314 -86.45237442 203.56289314 -87.88900757 203.82756042 C-88.75650131 203.98309387 -89.62399506 204.13862732 -90.51777649 204.2988739 C-91.64177841 204.50319802 -91.64177841 204.50319802 -92.78848743 204.71164989 C-95.21362379 205.02785353 -97.55703552 205.04822448 -100 205 C-101.57178847 196.75175479 -103.13240676 188.50140821 -104.6875 180.25 C-104.81205063 179.58915405 -104.93660126 178.92830811 -105.06492615 178.24743652 C-111.29031319 145.1949671 -117.26727456 112.09704836 -123.25 79 C-123.43053586 78.00129977 -123.43053586 78.00129977 -123.61471891 76.98242378 C-126.74682446 59.65561302 -129.87527476 42.32814325 -133 25 C-124.5470838 22.98960453 -116.0839305 21.18645044 -107.5402832 19.6081543 C-106.37116898 19.38992508 -105.20205475 19.17169586 -103.99751282 18.94685364 C-100.18255467 18.23592861 -96.36677564 17.52955924 -92.55078125 16.82421875 C-91.22805721 16.57934947 -89.90534088 16.33443859 -88.58263206 16.08948708 C-82.38315482 14.94176609 -76.18318398 13.79676081 -69.9825595 12.65525407 C-62.84109276 11.34045471 -55.70149012 10.01605794 -48.56326801 8.68375844 C-43.02478597 7.65067019 -37.48473664 6.62629535 -31.94341725 5.60853702 C-28.64041396 5.00166597 -25.33821358 4.39102233 -22.03762245 3.7711544 C-18.37241426 3.08503217 -14.7048712 2.41316744 -11.03637695 1.74487305 C-9.94190247 1.53667938 -8.84742798 1.32848572 -7.7197876 1.11398315 C-6.72612686 0.93595657 -5.73246613 0.75792999 -4.70869446 0.57450867 C-3.84250142 0.41432597 -2.97630838 0.25414328 -2.08386707 0.08910656 C-1.05235287 0.04499881 -1.05235287 0.04499881 0 0 Z " fill="#000000" transform="translate(1777,248)"/>
<path d="M0 0 C1.22919662 -0.00511597 2.45839325 -0.01023193 3.72483826 -0.01550293 C18.10999319 0.3160791 31.72974218 4.11256414 42.62109375 13.84375 C52.56342837 24.46771039 54.46088901 37.72350131 54.1171875 51.625 C53.6039362 62.81949609 48.6847316 72.3926425 40.52148438 79.9765625 C38.33928091 81.93244268 36.1189409 83.83887783 33.87109375 85.71875 C34.69351563 86.01007813 35.5159375 86.30140625 36.36328125 86.6015625 C51.54102193 92.174913 63.95503464 99.4594609 70.99609375 114.5390625 C76.75304081 128.88002884 78.19435511 147.09566943 72.12109375 161.65625 C71.40700723 163.02969378 70.65640943 164.3847535 69.87109375 165.71875 C69.46117187 166.45222656 69.05125 167.18570313 68.62890625 167.94140625 C58.37510917 184.82830934 40.67122852 191.63785107 22.37670898 196.15100098 C14.62702997 197.9070059 6.73786379 198.89680054 -1.12890625 199.96875 C-3.15832213 200.25379264 -5.18761544 200.53970909 -7.21679688 200.82641602 C-11.68251393 201.45433566 -16.14936845 202.07325408 -20.6171875 202.68603516 C-25.96984381 203.4202277 -31.32124709 204.16283104 -36.671875 204.91162109 C-44.91471535 206.06499019 -53.1588213 207.20901089 -61.40362549 208.34825134 C-63.62128659 208.65519537 -65.83873794 208.96361816 -68.05615234 209.27233887 C-71.57541607 209.76181206 -75.09543236 210.24549348 -78.61607361 210.72495461 C-80.53982764 210.98818109 -82.4628598 211.25666659 -84.38586426 211.52531433 C-86.13715637 211.76209648 -86.13715637 211.76209648 -87.92382812 212.00366211 C-88.93376831 212.14243271 -89.9437085 212.28120331 -90.98425293 212.42417908 C-94.72556247 212.77464092 -98.37198932 212.76523377 -102.12890625 212.71875 C-105.41970683 192.01348785 -108.32248598 171.26077282 -111.17885113 150.49207544 C-111.68272707 146.83014244 -112.18788477 143.16838668 -112.6930182 139.50662696 C-113.8829746 130.88032378 -115.07084701 122.25373548 -116.25732422 113.62695312 C-117.47919043 104.74312169 -118.704578 95.85978084 -119.93163943 86.97666562 C-120.99099482 79.30677268 -122.04826273 71.63659402 -123.10382962 63.96617877 C-123.73192272 59.4021856 -124.36079235 54.83830295 -124.99166107 50.27469254 C-125.5818043 46.0049893 -126.16934086 41.73493546 -126.75484657 37.46459389 C-126.96998796 35.89871623 -127.18605342 34.33296521 -127.40310478 32.76735115 C-127.69878628 30.63349398 -127.99114292 28.49920693 -128.28265381 26.36477661 C-128.44706844 25.17071764 -128.61148308 23.97665867 -128.78087997 22.74641609 C-129.12890625 19.71875 -129.12890625 19.71875 -129.12890625 15.71875 C-115.36040531 13.73578236 -101.58850939 11.77843031 -87.81205082 9.85147858 C-81.41141675 8.95543271 -75.01214407 8.05142606 -68.61547852 7.12744141 C-19.27351417 0.01145163 -19.27351417 0.01145163 0 0 Z M-53.12890625 46.71875 C-52.67552151 55.00474697 -51.73917637 63.18583946 -50.62890625 71.40625 C-50.43300903 72.87698975 -50.43300903 72.87698975 -50.2331543 74.37744141 C-50.10593994 75.29831543 -49.97872559 76.21918945 -49.84765625 77.16796875 C-49.73357422 77.99643311 -49.61949219 78.82489746 -49.50195312 79.6784668 C-49.21647155 81.77616091 -49.21647155 81.77616091 -48.12890625 83.71875 C-30.51031779 82.81019718 -30.51031779 82.81019718 -15.06640625 75.21875 C-10.69287041 69.57547795 -10.34249481 64.73820023 -11.12890625 57.71875 C-12.77063502 52.36760162 -15.36734405 48.77103346 -20.12890625 45.71875 C-23.62957662 44.55185988 -26.79784905 44.52780944 -30.44140625 44.53125 C-31.14330078 44.53060547 -31.84519531 44.52996094 -32.56835938 44.52929688 C-39.53563102 44.5981558 -46.26468123 45.51751062 -53.12890625 46.71875 Z M-32.62890625 119.21875 C-34.14871094 119.43337891 -34.14871094 119.43337891 -35.69921875 119.65234375 C-38.17652407 120.00290582 -40.65299762 120.35847847 -43.12890625 120.71875 C-42.48875988 129.86247673 -41.35664472 138.89604837 -40.06640625 147.96875 C-39.8779501 149.31115512 -39.6897974 150.65360287 -39.50195312 151.99609375 C-39.04723627 155.23740878 -38.58950055 158.47826587 -38.12890625 161.71875 C-33.0999828 163.39505782 -28.09608284 161.85658568 -22.94140625 161.03125 C-21.82958984 160.86947266 -20.71777344 160.70769531 -19.57226562 160.54101562 C-11.90001197 159.32817268 -4.72653545 157.85958976 0.74609375 151.90625 C4.44996328 146.35044571 5.37039609 141.4934968 4.40625 134.98828125 C2.79613691 128.15999141 -0.3198079 123.59148223 -6.12890625 119.71875 C-14.87574483 116.31720166 -23.60245526 117.90387328 -32.62890625 119.21875 Z " fill="#000000" transform="translate(215.12890625,450.28125)"/>
<path d="M0 0 C2.10518909 1.99190537 3.58403818 3.71609209 4.078125 6.62890625 C4.09101562 7.35722656 4.10390625 8.08554687 4.1171875 8.8359375 C4.14554688 9.55136719 4.17390625 10.26679688 4.203125 11.00390625 C2.89665841 18.49948153 -2.13323023 24.47384482 -6.7578125 30.2734375 C-7.37438721 31.05541504 -7.99096191 31.83739258 -8.6262207 32.64306641 C-16.94720462 43.13004935 -25.72328471 53.16473393 -34.8125 62.98828125 C-36.80942043 65.16064996 -38.76609984 67.35382913 -40.6953125 69.5859375 C-45.2166144 74.79619969 -49.93432198 79.82811822 -54.62451172 84.88574219 C-57.42356373 87.90654271 -60.21527317 90.93411772 -63.0078125 93.9609375 C-64.02340517 95.06122776 -65.03902709 96.16149102 -66.0546875 97.26171875 C-66.78171875 98.04933594 -67.50875 98.83695312 -68.2578125 99.6484375 C-63.03016451 114.60005249 -47.46745719 128.87647959 -36.2578125 139.6484375 C-32.05434348 138.19040766 -28.68778931 136.01205562 -25.1328125 133.3984375 C-24.2363501 132.7485083 -24.2363501 132.7485083 -23.32177734 132.08544922 C-21.29571062 130.61283459 -19.27640601 129.13127735 -17.2578125 127.6484375 C-16.51595703 127.10541992 -15.77410156 126.56240234 -15.00976562 126.00292969 C-12.63232224 124.26219473 -10.25725467 122.51826363 -7.8828125 120.7734375 C-7.08327148 120.18715576 -6.28373047 119.60087402 -5.45996094 118.99682617 C-1.48268116 116.06921775 2.45627621 113.10685065 6.3359375 110.05078125 C7.05861816 109.48794434 7.78129883 108.92510742 8.52587891 108.34521484 C9.88714974 107.28143397 11.23901103 106.20546413 12.57958984 105.11572266 C17.03170752 101.65480001 17.03170752 101.65480001 20.359375 101.625 C23.14733304 102.82245083 25.50373117 104.22125321 27.9921875 105.9609375 C29.29929687 106.85232422 29.29929687 106.85232422 30.6328125 107.76171875 C32.86980044 109.76258019 33.40601037 110.71981751 33.7421875 113.6484375 C20.98395741 123.52295805 8.11785009 133.24250607 -4.9453125 142.7109375 C-5.69965576 143.25919189 -6.45399902 143.80744629 -7.23120117 144.37231445 C-10.19948791 146.51453245 -13.10527847 148.56023218 -16.27734375 150.39453125 C-16.93089844 150.80832031 -17.58445312 151.22210938 -18.2578125 151.6484375 C-18.2578125 152.3084375 -18.2578125 152.9684375 -18.2578125 153.6484375 C-16.1396775 155.10677499 -14.0390536 156.42068982 -11.8203125 157.7109375 C-11.15668701 158.10434326 -10.49306152 158.49774902 -9.80932617 158.90307617 C-3.95205545 162.3356617 2.0382665 165.50758477 8.10522461 168.55297852 C11.89071569 170.49182277 15.01058055 172.28157312 17.7421875 175.6484375 C17.7421875 176.3084375 17.7421875 176.9684375 17.7421875 177.6484375 C11.98428232 175.9951776 6.89220258 173.30203853 1.6171875 170.5234375 C0.68519531 170.03713867 -0.24679687 169.55083984 -1.20703125 169.04980469 C-7.45601392 165.74062506 -13.23645338 162.18244112 -18.8828125 157.9140625 C-21.91049299 156.3006275 -23.00651372 156.74205353 -26.2578125 157.6484375 C-28.36618988 158.67878858 -28.36618988 158.67878858 -30.375 160.01953125 C-31.5206543 160.74958374 -31.5206543 160.74958374 -32.68945312 161.49438477 C-33.49576172 162.01959717 -34.30207031 162.54480957 -35.1328125 163.0859375 C-35.97779297 163.62726318 -36.82277344 164.16858887 -37.69335938 164.72631836 C-42.16074815 167.59935509 -46.58637052 170.52876732 -50.98291016 173.50878906 C-71.88890407 187.66850213 -94.00697806 202.52977066 -120.2578125 199.6484375 C-128.24715855 197.68182924 -134.69420479 193.69981355 -140.2578125 187.6484375 C-142.22561176 183.71283899 -141.74279235 180.13737096 -140.421875 176.08203125 C-128.78342141 147.37644941 -112.10256187 120.76504831 -92.203125 97.12109375 C-91.24019531 95.89712891 -91.24019531 95.89712891 -90.2578125 94.6484375 C-89.25041016 93.52501953 -89.25041016 93.52501953 -88.22265625 92.37890625 C-86.99961384 89.7944592 -86.99961384 89.7944592 -87.8671875 87.74829102 C-89.0443894 85.39576003 -90.3431189 83.15490344 -91.6953125 80.8984375 C-98.94564913 67.99121742 -107.00941841 52.62545498 -103.1953125 37.4609375 C-96.57668564 18.80578126 -74.01875011 3.36458684 -56.92041016 -4.8918457 C-37.43061136 -13.84015932 -17.14550373 -13.8796935 0 0 Z M-59.98291016 17.97119141 C-63.8659482 21.06045308 -67.5799071 24.31949541 -71.2578125 27.6484375 C-72.65580078 28.8859375 -72.65580078 28.8859375 -74.08203125 30.1484375 C-81.13855775 36.73030975 -87.36304 44.56407395 -87.8828125 54.5859375 C-87.24458141 64.03783604 -83.35703364 73.21014717 -79.2578125 81.6484375 C-74.34464649 77.67609051 -70.15975661 73.43028134 -65.984375 68.6953125 C-62.00991223 64.21301861 -57.86703856 59.88455554 -53.75 55.53369141 C-49.47405256 50.99842406 -45.32918505 46.36800093 -41.2578125 41.6484375 C-40.79487793 41.11299316 -40.33194336 40.57754883 -39.85498047 40.02587891 C-22.82838405 22.13438901 -22.82838405 22.13438901 -12.2578125 0.6484375 C-29.02232667 -3.04887227 -47.12656743 8.11332771 -59.98291016 17.97119141 Z M-76.6484375 108.984375 C-87.31910665 120.68624327 -96.33115661 133.95539708 -104.14990234 147.70166016 C-104.91495178 149.04597576 -105.68653336 150.38658751 -106.46337891 151.72412109 C-118.29718412 169.80533059 -118.29718412 169.80533059 -124.2578125 189.6484375 C-100.21042295 187.19623659 -78.8294918 170.78108259 -59.2578125 157.6484375 C-58.41686035 157.08640625 -57.5759082 156.524375 -56.70947266 155.9453125 C-54.05387164 154.16620969 -51.40453218 152.37822191 -48.7578125 150.5859375 C-47.50907349 149.74470337 -47.50907349 149.74470337 -46.23510742 148.88647461 C-45.4691626 148.3631958 -44.70321777 147.83991699 -43.9140625 147.30078125 C-42.89022461 146.60456665 -42.89022461 146.60456665 -41.84570312 145.89428711 C-40.11504472 144.71926264 -40.11504472 144.71926264 -39.2578125 142.6484375 C-39.84304688 142.20757812 -40.42828125 141.76671875 -41.03125 141.3125 C-47.63368516 136.13761839 -53.62789607 130.49926603 -59.5703125 124.5859375 C-60.33456543 123.83070801 -61.09881836 123.07547852 -61.88623047 122.29736328 C-66.03690231 118.12492694 -69.75851314 113.89636575 -73.15307617 109.08422852 C-73.51763916 108.61041748 -73.88220215 108.13660645 -74.2578125 107.6484375 C-75.45901487 107.53297337 -75.45901487 107.53297337 -76.6484375 108.984375 Z " fill="#FF4646" transform="translate(1122.2578125,326.3515625)"/>
</svg>
